<svg xmlns="http://www.w3.org/2000/svg" viewBox="0 0 24 24" fill="#fff">
    <path d="M5.187058 13.9419484L9.434686 13.679c.101134.6877112.2831752 1.213608.5663504 1.5776904.4652164.5865772 1.112474.8899792 1.9822264.8899792.6270308 0 1.1327008-.1618144 1.4765564-.4652164.3438556-.2831752.50567-.6472576.50567-1.0315668s-.1618144-.707938-.4854432-1.01134c-.3236288-.303402-1.0922472-.5663504-2.2856284-.8292988-1.9619996-.4449896-3.3778756-1.0315668-4.2071744-1.7597316-.8495256-.7483916-1.2540616-1.6788244-1.2540616-2.8115252 0-.7281648.202268-1.4361028.6472576-2.1035872C6.805202 5.4669192 7.4524596 4.9612492 8.322212 4.57694c.8697524-.3843092 2.0429068-.5663504 3.5599168-.5663504 1.8406388 0 3.2565148.3438556 4.2274012 1.0315668.9708864.6877112 1.5574636 1.7799584 1.7395048 3.2767416l-4.2274012.2629484c-.101134-.6674844-.3438556-1.1327008-.707938-1.4361028-.3640824-.2831752-.8495256-.4449896-1.4765564-.4449896-.5258968 0-.910206.1213608-1.1731544.3438556-.2629484.2224948-.404536.4854432-.404536.7888452 0 .2427216.101134.4449896.3236288.6270308.2224948.202268.707938.3640824 1.4967832.5461236 1.9619996.404536 3.3576488.8292988 4.2071744 1.2742884.8495256.4247628 1.4563296.9708864 1.8608656 1.5979172.3843092.6472576.5663504 1.3551956.5663504 2.1440408 0 .9304328-.2629484 1.7799584-.7686184 2.5688036-.50567.7888452-1.2338348 1.3754224-2.1440408 1.7799584-.9304328.404536-2.0833604.606804-3.4992364.606804-2.4676696 0-4.1667208-.4652164-5.1173804-1.415876-.9506596-.9506596-1.4765564-2.1642676-1.5979172-3.6205972z"/>
</svg>
