<svg xmlns="http://www.w3.org/2000/svg" viewBox="0 0 24 24" fill="#fff">
    <path d="M14.3017042 4.0443592h4.6162038v8.7636626c0 .8619996-.1462146 1.6829516-.417756 2.462856-.2715414.7593806-.7101852 1.436666-1.2950436 2.0113324-.5848584.5951902-1.2114924.9851424-1.8590142 1.231428-.8981754.3283808-1.9634532.4925712-3.2167212.4925712-.731073 0-1.5248094-.0615714-2.3812092-.1641904-.8772876-.102619-1.5874728-.2873332-2.1723312-.5951902-.5639706-.2873332-1.1070534-.718333-1.5874728-1.2519518-.4804194-.5541426-.7937364-1.128809-.9817266-1.7034754-.2715414-.9440948-.417756-1.7650468-.417756-2.4833798V4.0443592h4.595316v8.9689006c0 .8004282.2297658 1.436666.6892974 1.8881896.4595316.4515236 1.0861656.6772854 1.879902.6772854s1.4203704-.2257618 1.879902-.6772854c.4386438-.4309998.6684096-1.0672376.6684096-1.8881896V4.0443592z"/>
</svg>
