<svg xmlns="http://www.w3.org/2000/svg" viewBox="0 0 24 24" fill="#fff">
  <path d="M21.8595347 11.78443366c-.03911108-.02844442-.08244437-.05311106-.12666654-.07333326-.55688834-.25533308-1.11155445-.51555504-1.672665-.76199924-.44022178-.19311092-.89177688-.19222203-1.32977645.0071111-2.02488686.92177686-4.04621817 1.85088704-6.0717717 2.77177501-.43288846.1968887-.882888.19777758-1.31577646.00111111-2.02999797-.9222213-4.05599595-1.85377592-6.08554947-2.77688611-.4333329-.1968887-.88088801-.19466647-1.31599869-.004-.54777723.23977754-1.08911002.49377729-1.63222059.74377704-.13777764.06333327-.29644415.12266654-.29977748.30222192-.00333333.18933314.16311095.24777753.30466637.31288857.93066573.42755513 6.90288198 3.15844129 8.95643548 4.0999959.23177755.10622212.47044398.16911095.72777705.15399985.00355556.01399999.00733333.0282222.01088888.0424444.22488867-.05977772.45888843-.09822212.67288822-.18422204.3726663-.14977762 9.07910203-4.14221808 9.1788797-4.210218.1837776-.12488877.17933316-.29355527-.00133332-.42466625m-.15733318 5.33266133c-.55599944-.25733307-1.10911-.52066614-1.67244277-.76177701-.4202218-.1797776-.85999914-.17999982-1.2766654.0091111-2.02599797.91977686-4.04688483 1.84999815-6.07132725 2.77288612-.4535551.20688868-.91622131.2051109-1.36999863-.00177778-1.99755356-.9111102-3.99221823-1.82844262-5.99221623-2.73421949-.21844423-.09888879-.4646662-.13911097-.70977707-.20999979-.24533309.06622216-.4908884.10466656-.71222151.1979998-.52377726.22088867-1.03644341.46711065-1.55288734.70466597-.07533326.03466663-.15266651.0706666-.21799978.11999988-.16511095.12444432-.16577761.28555527.00066667.40733292.0777777.05688883.16911094.09755546.25799974.13822209.78399921.35977741 6.75532658 3.0919969 8.95887993 4.09444035.43288845.19688869.8817769.19311091 1.31577646-.002.95199905-.4282218 6.9757708-3.18710793 9.03865763-4.1322181.13755542-.06288882.29377748-.12488876.29111082-.30755524-.00266667-.17422205-.15511096-.23399977-.28755527-.29511082M2.09555446 6.75488313c.07311104.06177772.16311095.10733323.25133308.14777763 2.9766637 1.36310975 5.95421627 2.72399728 8.93065774 4.08799592.23244421.10666656.4726662.15977761.73666593.1928887.21666645-.05599995.44777733-.08111104.64777713-.17222206 3.00266366-1.36555419 6.0011051-2.73955281 8.99976878-4.11332922.0879999-.0404444.17733315-.08799991.24866641-.15111096.11977766-.10577767.11999988-.23488865-.00288888-.33755522-.08444436-.07022215-.1877776-.12244432-.28911082-.16911094-.78355478-.3606663-6.73799327-3.08444136-8.93176885-4.08510702-.45888843-.20933313-.92644352-.20555535-1.3848875.00377777-2.99133035 1.36622086-5.98154958 2.73488615-8.97154659 4.1039959-.0837777.0384444-.16822205.08399991-.23666643.14333319-.12511098.10866655-.12488876.24133309.002.34866631"/>
</svg>
