<svg xmlns="http://www.w3.org/2000/svg" viewBox="0 0 24 24" fill="#fff">
  <path fill-rule="nonzero" d="M21.62257593 11.10932283l-8.73214447-8.73199681c-.50252187-.5030558-1.31811868-.5030558-1.82151117 0L9.25576708 4.190695l2.30017804 2.30023088c.53456068-.18057074 1.14747716-.05937765 1.57355859.36653944.42851916.42870313.5484906 1.04703166.36339679 1.58352003l2.21694676 2.21682357c.53647605-.18492394 1.1549645-.06547213 1.58348366.36375339.59863831.5983038.59863831 1.5683709 0 2.16719709-.59898656.59900032-1.56885724.59900032-2.16801792 0-.45011054-.45046914-.5615499-1.11215554-.33327334-1.66675322l-2.0677225-2.06759587v5.44080349c.14574179.07226312.28347387.16838177.40501242.28974899.59863832.59847794.59863832 1.5683709 0 2.1678936-.59846418.5983038-1.56903136.5983038-2.1671473 0-.59846419-.5995227-.59846419-1.56941566 0-2.1678936.1480054-.14783467.31934342-.25962485.5019995-.33449989V9.35933643c-.18265608-.07470091-.35364585-.18562045-.5019995-.33449989-.45324477-.45308105-.56242052-1.11859827-.32979086-1.67545961L8.36477457 5.08153386 2.37717258 11.068751c-.5028701.50340405-.5028701 1.3190196 0 1.82207539l8.73249273 8.73199682c.50287011.50288166 1.31811868.50288166 1.82168529 0l8.69122533-8.69159912c.50321836-.5030558.50321836-1.3190196 0-1.82190127"/>
</svg>
