<svg viewBox="0 0 24 24" version="1.1" xmlns="http://www.w3.org/2000/svg">
    <path d="M20,2C21.103,2 22,3.035 22,4.308L22,19.692C22,20.965 21.103,22 20,22L4,22C2.897,22 2,20.965 2,19.692L2,4.308C2,3.035 2.897,2 4,2L20,2ZM7.34,20.462L7.34,3.538L4,3.538C3.632,3.538 3.333,3.884 3.333,4.308L3.333,19.692C3.333,20.116 3.632,20.462 4,20.462L7.34,20.462ZM20,20.462C20.368,20.462 20.667,20.116 20.667,19.692L20.667,4.308C20.667,3.884 20.368,3.538 20,3.538L8.674,3.538L8.674,20.462L20,20.462ZM5.778,15.077L4.889,15.077C4.767,15.077 4.667,14.962 4.667,14.821L4.667,13.026C4.667,12.885 4.767,12.769 4.889,12.769L5.778,12.769C5.9,12.769 6,12.885 6,13.026L6,14.821C6,14.962 5.9,15.077 5.778,15.077ZM5.778,11.231L4.889,11.231C4.767,11.231 4.667,11.115 4.667,10.974L4.667,9.179C4.667,9.038 4.767,8.923 4.889,8.923L5.778,8.923C5.9,8.923 6,9.038 6,9.179L6,10.974C6,11.115 5.9,11.231 5.778,11.231ZM5.778,7.385L4.889,7.385C4.767,7.385 4.667,7.269 4.667,7.128L4.667,5.333C4.667,5.192 4.767,5.077 4.889,5.077L5.778,5.077C5.9,5.077 6,5.192 6,5.333L6,7.128C6,7.269 5.9,7.385 5.778,7.385Z" style="fill:white;fill-rule:nonzero;"/>
</svg>
